# Blender 4.1.1
# www.blender.org
mtllib board.mtl
o Chessboard
v -4.000000 0.000000 4.000000
v 4.000000 0.000000 4.000000
v -4.000000 0.000000 -4.000000
v 4.000000 0.000000 -4.000000
v -4.000000 0.000000 -3.000000
v -4.000000 0.000000 -2.000000
v -4.000000 0.000000 -1.000000
v -4.000000 0.000000 0.000000
v -4.000000 0.000000 1.000000
v -4.000000 0.000000 2.000000
v -4.000000 0.000000 3.000000
v -3.000000 0.000000 4.000000
v -2.000000 0.000000 4.000000
v -1.000000 0.000000 4.000000
v 0.000000 0.000000 4.000000
v 1.000000 0.000000 4.000000
v 2.000000 0.000000 4.000000
v 3.000000 0.000000 4.000000
v 4.000000 0.000000 3.000000
v 4.000000 0.000000 2.000000
v 4.000000 0.000000 1.000000
v 4.000000 0.000000 0.000000
v 4.000000 0.000000 -1.000000
v 4.000000 0.000000 -2.000000
v 4.000000 0.000000 -3.000000
v 3.000000 0.000000 -4.000000
v 2.000000 0.000000 -4.000000
v 1.000000 0.000000 -4.000000
v 0.000000 0.000000 -4.000000
v -1.000000 0.000000 -4.000000
v -2.000000 0.000000 -4.000000
v -3.000000 0.000000 -4.000000
v -3.000000 0.000000 3.000000
v -3.000000 0.000000 2.000000
v -3.000000 0.000000 1.000000
v -3.000000 0.000000 0.000000
v -3.000000 0.000000 -1.000000
v -3.000000 0.000000 -2.000000
v -3.000000 0.000000 -3.000000
v -2.000000 0.000000 3.000000
v -2.000000 0.000000 2.000000
v -2.000000 0.000000 1.000000
v -2.000000 0.000000 0.000000
v -2.000000 0.000000 -1.000000
v -2.000000 0.000000 -2.000000
v -2.000000 0.000000 -3.000000
v -1.000000 0.000000 3.000000
v -1.000000 0.000000 2.000000
v -1.000000 0.000000 1.000000
v -1.000000 0.000000 0.000000
v -1.000000 0.000000 -1.000000
v -1.000000 0.000000 -2.000000
v -1.000000 0.000000 -3.000000
v 0.000000 0.000000 3.000000
v 0.000000 0.000000 2.000000
v 0.000000 0.000000 1.000000
v 0.000000 0.000000 0.000000
v 0.000000 0.000000 -1.000000
v 0.000000 0.000000 -2.000000
v 0.000000 0.000000 -3.000000
v 1.000000 0.000000 3.000000
v 1.000000 0.000000 2.000000
v 1.000000 0.000000 1.000000
v 1.000000 0.000000 0.000000
v 1.000000 0.000000 -1.000000
v 1.000000 0.000000 -2.000000
v 1.000000 0.000000 -3.000000
v 2.000000 0.000000 3.000000
v 2.000000 0.000000 2.000000
v 2.000000 0.000000 1.000000
v 2.000000 0.000000 0.000000
v 2.000000 0.000000 -1.000000
v 2.000000 0.000000 -2.000000
v 2.000000 0.000000 -3.000000
v 3.000000 0.000000 3.000000
v 3.000000 0.000000 2.000000
v 3.000000 0.000000 1.000000
v 3.000000 0.000000 0.000000
v 3.000000 0.000000 -1.000000
v 3.000000 0.000000 -2.000000
v 3.000000 0.000000 -3.000000
v -4.000000 -0.031793 3.000000
v -4.000000 -0.031793 4.000000
v 3.000000 -0.031793 4.000000
v 4.000000 -0.031793 4.000000
v 4.000000 -0.031792 -3.000000
v 4.000000 -0.031792 -4.000000
v -3.000000 -0.031792 -4.000000
v -4.000000 -0.031792 -4.000000
v -4.000000 -0.031792 -3.000000
v -4.000000 -0.031792 -2.000000
v -4.000000 -0.031792 -1.000000
v -4.000000 -0.031793 0.000000
v -4.000000 -0.031793 1.000000
v -4.000000 -0.031793 2.000000
v -3.000000 -0.031793 4.000000
v -2.000000 -0.031793 4.000000
v -1.000000 -0.031793 4.000000
v 0.000000 -0.031793 4.000000
v 1.000000 -0.031793 4.000000
v 2.000000 -0.031793 4.000000
v 4.000000 -0.031793 3.000000
v 4.000000 -0.031793 2.000000
v 4.000000 -0.031793 1.000000
v 4.000000 -0.031793 0.000000
v 4.000000 -0.031792 -1.000000
v 4.000000 -0.031792 -2.000000
v 3.000000 -0.031792 -4.000000
v 2.000000 -0.031792 -4.000000
v 1.000000 -0.031792 -4.000000
v 0.000000 -0.031792 -4.000000
v -1.000000 -0.031792 -4.000000
v -2.000000 -0.031792 -4.000000
v -3.000000 -0.031792 -3.000000
v -3.000000 -0.031793 3.000000
v -3.000000 -0.031793 2.000000
v -3.000000 -0.031793 1.000000
v -3.000000 -0.031793 0.000000
v -3.000000 -0.031792 -1.000000
v -3.000000 -0.031792 -2.000000
v -2.000000 -0.031792 -3.000000
v -2.000000 -0.031793 3.000000
v -2.000000 -0.031793 2.000000
v -2.000000 -0.031793 1.000000
v -2.000000 -0.031793 0.000000
v -2.000000 -0.031792 -1.000000
v -2.000000 -0.031792 -2.000000
v -1.000000 -0.031792 -3.000000
v -1.000000 -0.031793 3.000000
v -1.000000 -0.031793 2.000000
v -1.000000 -0.031793 1.000000
v -1.000000 -0.031793 0.000000
v -1.000000 -0.031792 -1.000000
v -1.000000 -0.031792 -2.000000
v 0.000000 -0.031792 -3.000000
v 0.000000 -0.031793 3.000000
v 0.000000 -0.031793 2.000000
v 0.000000 -0.031793 1.000000
v 0.000000 -0.031793 0.000000
v 0.000000 -0.031792 -1.000000
v 0.000000 -0.031792 -2.000000
v 1.000000 -0.031792 -3.000000
v 1.000000 -0.031793 3.000000
v 1.000000 -0.031793 2.000000
v 1.000000 -0.031793 1.000000
v 1.000000 -0.031793 0.000000
v 1.000000 -0.031792 -1.000000
v 1.000000 -0.031792 -2.000000
v 2.000000 -0.031792 -3.000000
v 2.000000 -0.031793 3.000000
v 2.000000 -0.031793 2.000000
v 2.000000 -0.031793 1.000000
v 2.000000 -0.031793 0.000000
v 2.000000 -0.031792 -1.000000
v 2.000000 -0.031792 -2.000000
v 3.000000 -0.031792 -3.000000
v 3.000000 -0.031793 3.000000
v 3.000000 -0.031793 2.000000
v 3.000000 -0.031793 1.000000
v 3.000000 -0.031793 0.000000
v 3.000000 -0.031792 -1.000000
v 3.000000 -0.031792 -2.000000
vn -0.0000 1.0000 -0.0000
vn -0.0000 -1.0000 -0.0000
vn -0.0000 -0.0000 -1.0000
vn -0.0000 -0.0000 1.0000
vn -1.0000 -0.0000 -0.0000
vn 1.0000 -0.0000 -0.0000
vt 0.875000 0.875000
vt 1.000000 0.875000
vt 1.000000 1.000000
vt 0.875000 1.000000
vt 0.125000 0.875000
vt 0.250000 0.875000
vt 0.250000 1.000000
vt 0.125000 1.000000
vt 0.375000 0.875000
vt 0.500000 0.875000
vt 0.500000 1.000000
vt 0.375000 1.000000
vt 0.625000 0.875000
vt 0.750000 0.875000
vt 0.750000 1.000000
vt 0.625000 1.000000
vt 0.000000 0.000000
vt 0.125000 0.000000
vt 0.125000 0.125000
vt 0.000000 0.125000
vt 0.000000 0.250000
vt 0.125000 0.250000
vt 0.125000 0.375000
vt 0.000000 0.375000
vt 0.000000 0.500000
vt 0.125000 0.500000
vt 0.125000 0.625000
vt 0.000000 0.625000
vt 0.000000 0.750000
vt 0.125000 0.750000
vt 0.000000 0.875000
vt 0.250000 0.125000
vt 0.250000 0.250000
vt 0.250000 0.375000
vt 0.250000 0.500000
vt 0.250000 0.625000
vt 0.250000 0.750000
vt 0.250000 0.000000
vt 0.375000 0.000000
vt 0.375000 0.125000
vt 0.375000 0.250000
vt 0.375000 0.375000
vt 0.375000 0.500000
vt 0.375000 0.625000
vt 0.375000 0.750000
vt 0.500000 0.125000
vt 0.500000 0.250000
vt 0.500000 0.375000
vt 0.500000 0.500000
vt 0.500000 0.625000
vt 0.500000 0.750000
vt 0.500000 0.000000
vt 0.625000 0.000000
vt 0.625000 0.125000
vt 0.625000 0.250000
vt 0.625000 0.375000
vt 0.625000 0.500000
vt 0.625000 0.625000
vt 0.625000 0.750000
vt 0.750000 0.125000
vt 0.750000 0.250000
vt 0.750000 0.375000
vt 0.750000 0.500000
vt 0.750000 0.625000
vt 0.750000 0.750000
vt 0.750000 0.000000
vt 0.875000 0.000000
vt 0.875000 0.125000
vt 0.875000 0.250000
vt 0.875000 0.375000
vt 0.875000 0.500000
vt 0.875000 0.625000
vt 0.875000 0.750000
vt 1.000000 0.125000
vt 1.000000 0.250000
vt 1.000000 0.375000
vt 1.000000 0.500000
vt 1.000000 0.625000
vt 1.000000 0.750000
vt 0.000000 1.000000
vt 1.000000 0.000000
s 0
usemtl White
f 81/1/1 25/2/1 4/3/1 26/4/1
f 39/5/1 46/6/1 31/7/1 32/8/1
f 53/9/1 60/10/1 29/11/1 30/12/1
f 67/13/1 74/14/1 27/15/1 28/16/1
f 1/17/1 12/18/1 33/19/1 11/20/1
f 10/21/1 34/22/1 35/23/1 9/24/1
f 8/25/1 36/26/1 37/27/1 7/28/1
f 6/29/1 38/30/1 39/5/1 5/31/1
f 33/19/1 40/32/1 41/33/1 34/22/1
f 35/23/1 42/34/1 43/35/1 36/26/1
f 37/27/1 44/36/1 45/37/1 38/30/1
f 13/38/1 14/39/1 47/40/1 40/32/1
f 41/33/1 48/41/1 49/42/1 42/34/1
f 43/35/1 50/43/1 51/44/1 44/36/1
f 45/37/1 52/45/1 53/9/1 46/6/1
f 47/40/1 54/46/1 55/47/1 48/41/1
f 49/42/1 56/48/1 57/49/1 50/43/1
f 51/44/1 58/50/1 59/51/1 52/45/1
f 15/52/1 16/53/1 61/54/1 54/46/1
f 55/47/1 62/55/1 63/56/1 56/48/1
f 57/49/1 64/57/1 65/58/1 58/50/1
f 59/51/1 66/59/1 67/13/1 60/10/1
f 61/54/1 68/60/1 69/61/1 62/55/1
f 63/56/1 70/62/1 71/63/1 64/57/1
f 65/58/1 72/64/1 73/65/1 66/59/1
f 17/66/1 18/67/1 75/68/1 68/60/1
f 69/61/1 76/69/1 77/70/1 70/62/1
f 71/63/1 78/71/1 79/72/1 72/64/1
f 73/65/1 80/73/1 81/1/1 74/14/1
f 75/68/1 19/74/1 20/75/1 76/69/1
f 77/70/1 21/76/1 22/77/1 78/71/1
f 79/72/1 23/78/1 24/79/1 80/73/1
f 156/1/2 108/4/2 87/3/2 86/2/2
f 114/5/2 88/8/2 113/7/2 121/6/2
f 128/9/2 112/12/2 111/11/2 135/10/2
f 142/13/2 110/16/2 109/15/2 149/14/2
f 83/17/2 82/20/2 115/19/2 96/18/2
f 95/21/2 94/24/2 117/23/2 116/22/2
f 93/25/2 92/28/2 119/27/2 118/26/2
f 91/29/2 90/31/2 114/5/2 120/30/2
f 115/19/2 116/22/2 123/33/2 122/32/2
f 117/23/2 118/26/2 125/35/2 124/34/2
f 119/27/2 120/30/2 127/37/2 126/36/2
f 97/38/2 122/32/2 129/40/2 98/39/2
f 123/33/2 124/34/2 131/42/2 130/41/2
f 125/35/2 126/36/2 133/44/2 132/43/2
f 127/37/2 121/6/2 128/9/2 134/45/2
f 129/40/2 130/41/2 137/47/2 136/46/2
f 131/42/2 132/43/2 139/49/2 138/48/2
f 133/44/2 134/45/2 141/51/2 140/50/2
f 99/52/2 136/46/2 143/54/2 100/53/2
f 137/47/2 138/48/2 145/56/2 144/55/2
f 139/49/2 140/50/2 147/58/2 146/57/2
f 141/51/2 135/10/2 142/13/2 148/59/2
f 143/54/2 144/55/2 151/61/2 150/60/2
f 145/56/2 146/57/2 153/63/2 152/62/2
f 147/58/2 148/59/2 155/65/2 154/64/2
f 101/66/2 150/60/2 157/68/2 84/67/2
f 151/61/2 152/62/2 159/70/2 158/69/2
f 153/63/2 154/64/2 161/72/2 160/71/2
f 155/65/2 149/14/2 156/1/2 162/73/2
f 157/68/2 158/69/2 103/75/2 102/74/2
f 159/70/2 160/71/2 105/77/2 104/76/2
f 161/72/2 162/73/2 107/79/2 106/78/2
f 4/3/3 87/3/3 108/4/3 26/4/3
f 13/38/4 97/38/4 98/39/4 14/39/4
f 11/20/5 82/20/5 83/17/5 1/17/5
f 27/15/3 109/15/3 110/16/3 28/16/3
f 15/52/4 99/52/4 100/53/4 16/53/4
f 25/2/6 86/2/6 87/3/6 4/3/6
f 29/11/3 111/11/3 112/12/3 30/12/3
f 17/66/4 101/66/4 84/67/4 18/67/4
f 31/7/3 113/7/3 88/8/3 32/8/3
f 5/31/5 90/31/5 91/29/5 6/29/5
f 19/74/6 102/74/6 103/75/6 20/75/6
f 7/28/5 92/28/5 93/25/5 8/25/5
f 21/76/6 104/76/6 105/77/6 22/77/6
f 9/24/5 94/24/5 95/21/5 10/21/5
f 23/78/6 106/78/6 107/79/6 24/79/6
f 1/17/4 83/17/4 96/18/4 12/18/4
usemtl Black
f 5/31/1 39/5/1 32/8/1 3/80/1
f 46/6/1 53/9/1 30/12/1 31/7/1
f 60/10/1 67/13/1 28/16/1 29/11/1
f 74/14/1 81/1/1 26/4/1 27/15/1
f 11/20/1 33/19/1 34/22/1 10/21/1
f 9/24/1 35/23/1 36/26/1 8/25/1
f 7/28/1 37/27/1 38/30/1 6/29/1
f 12/18/1 13/38/1 40/32/1 33/19/1
f 34/22/1 41/33/1 42/34/1 35/23/1
f 36/26/1 43/35/1 44/36/1 37/27/1
f 38/30/1 45/37/1 46/6/1 39/5/1
f 40/32/1 47/40/1 48/41/1 41/33/1
f 42/34/1 49/42/1 50/43/1 43/35/1
f 44/36/1 51/44/1 52/45/1 45/37/1
f 14/39/1 15/52/1 54/46/1 47/40/1
f 48/41/1 55/47/1 56/48/1 49/42/1
f 50/43/1 57/49/1 58/50/1 51/44/1
f 52/45/1 59/51/1 60/10/1 53/9/1
f 54/46/1 61/54/1 62/55/1 55/47/1
f 56/48/1 63/56/1 64/57/1 57/49/1
f 58/50/1 65/58/1 66/59/1 59/51/1
f 16/53/1 17/66/1 68/60/1 61/54/1
f 62/55/1 69/61/1 70/62/1 63/56/1
f 64/57/1 71/63/1 72/64/1 65/58/1
f 66/59/1 73/65/1 74/14/1 67/13/1
f 68/60/1 75/68/1 76/69/1 69/61/1
f 70/62/1 77/70/1 78/71/1 71/63/1
f 72/64/1 79/72/1 80/73/1 73/65/1
f 18/67/1 2/81/1 19/74/1 75/68/1
f 76/69/1 20/75/1 21/76/1 77/70/1
f 78/71/1 22/77/1 23/78/1 79/72/1
f 80/73/1 24/79/1 25/2/1 81/1/1
f 90/31/2 89/80/2 88/8/2 114/5/2
f 121/6/2 113/7/2 112/12/2 128/9/2
f 135/10/2 111/11/2 110/16/2 142/13/2
f 149/14/2 109/15/2 108/4/2 156/1/2
f 82/20/2 95/21/2 116/22/2 115/19/2
f 94/24/2 93/25/2 118/26/2 117/23/2
f 92/28/2 91/29/2 120/30/2 119/27/2
f 96/18/2 115/19/2 122/32/2 97/38/2
f 116/22/2 117/23/2 124/34/2 123/33/2
f 118/26/2 119/27/2 126/36/2 125/35/2
f 120/30/2 114/5/2 121/6/2 127/37/2
f 122/32/2 123/33/2 130/41/2 129/40/2
f 124/34/2 125/35/2 132/43/2 131/42/2
f 126/36/2 127/37/2 134/45/2 133/44/2
f 98/39/2 129/40/2 136/46/2 99/52/2
f 130/41/2 131/42/2 138/48/2 137/47/2
f 132/43/2 133/44/2 140/50/2 139/49/2
f 134/45/2 128/9/2 135/10/2 141/51/2
f 136/46/2 137/47/2 144/55/2 143/54/2
f 138/48/2 139/49/2 146/57/2 145/56/2
f 140/50/2 141/51/2 148/59/2 147/58/2
f 100/53/2 143/54/2 150/60/2 101/66/2
f 144/55/2 145/56/2 152/62/2 151/61/2
f 146/57/2 147/58/2 154/64/2 153/63/2
f 148/59/2 142/13/2 149/14/2 155/65/2
f 150/60/2 151/61/2 158/69/2 157/68/2
f 152/62/2 153/63/2 160/71/2 159/70/2
f 154/64/2 155/65/2 162/73/2 161/72/2
f 84/67/2 157/68/2 102/74/2 85/81/2
f 158/69/2 159/70/2 104/76/2 103/75/2
f 160/71/2 161/72/2 106/78/2 105/77/2
f 162/73/2 156/1/2 86/2/2 107/79/2
f 12/18/4 96/18/4 97/38/4 13/38/4
f 26/4/3 108/4/3 109/15/3 27/15/3
f 14/39/4 98/39/4 99/52/4 15/52/4
f 18/67/4 84/67/4 85/81/4 2/81/4
f 28/16/3 110/16/3 111/11/3 29/11/3
f 16/53/4 100/53/4 101/66/4 17/66/4
f 32/8/3 88/8/3 89/80/3 3/80/3
f 30/12/3 112/12/3 113/7/3 31/7/3
f 3/80/5 89/80/5 90/31/5 5/31/5
f 2/81/6 85/81/6 102/74/6 19/74/6
f 6/29/5 91/29/5 92/28/5 7/28/5
f 20/75/6 103/75/6 104/76/6 21/76/6
f 8/25/5 93/25/5 94/24/5 9/24/5
f 22/77/6 105/77/6 106/78/6 23/78/6
f 10/21/5 95/21/5 82/20/5 11/20/5
f 24/79/6 107/79/6 86/2/6 25/2/6
